# xmcd
#
# Track frame offsets: 
#        150
#        34068
#        52662
#        76199
#        107531
#        129470
#        146183
#        174836
#        203523
#        220080
#
# Disc length: 3273 seconds
#
# Revision: 0
# Processed by: cddbd v1.5.2PL0 Copyright (c) Steve Scherf et al.
# Submitted via: ExactAudioCopyFreeDBPlugin 1.0
#
DISCID=790cc70a
DTITLE=Jeff Strahan - Amen To The Blues
DYEAR=2008
DGENRE=Blues
TTITLE0=Southern Jeans
TTITLE1=Amen To The Blues
TTITLE2=Butterfly
TTITLE3=Living For Today
TTITLE4=Too Much Of A Good Thing
TTITLE5=Rebel By Design
TTITLE6=Give Me One Good Reason
TTITLE7=Hope And Faith
TTITLE8=New Girlfriend
TTITLE9=Take Me To Texas
EXTD=
EXTT0=
EXTT1=
EXTT2=
EXTT3=
EXTT4=
EXTT5=
EXTT6=
EXTT7=
EXTT8=
EXTT9=
PLAYORDER=
